<mxfile host="app.diagrams.net" modified="2024-09-02T13:08:27.560Z" agent="Mozilla/5.0 (X11; Ubuntu; Linux x86_64; rv:129.0) Gecko/20100101 Firefox/129.0" etag="D7MYzzwXiceKMaWmFw2s" version="24.7.1" type="device">
  <diagram name="Page-1" id="lY-_edP4m29GsRP70Z54">
    <mxGraphModel dx="1434" dy="867" grid="1" gridSize="10" guides="1" tooltips="1" connect="1" arrows="1" fold="1" page="1" pageScale="1" pageWidth="850" pageHeight="1100" math="0" shadow="0">
      <root>
        <mxCell id="0" />
        <mxCell id="1" parent="0" />
        <mxCell id="D55DIvP1AOZiSxPhy0iR-2" value="" style="endArrow=none;html=1;rounded=0;strokeWidth=3;" edge="1" parent="1">
          <mxGeometry width="50" height="50" relative="1" as="geometry">
            <mxPoint x="240" y="162" as="sourcePoint" />
            <mxPoint x="680" y="162" as="targetPoint" />
          </mxGeometry>
        </mxCell>
        <mxCell id="D55DIvP1AOZiSxPhy0iR-3" value="" style="endArrow=none;html=1;rounded=0;strokeWidth=3;" edge="1" parent="1">
          <mxGeometry width="50" height="50" relative="1" as="geometry">
            <mxPoint x="240" y="240" as="sourcePoint" />
            <mxPoint x="360" y="240" as="targetPoint" />
          </mxGeometry>
        </mxCell>
        <mxCell id="D55DIvP1AOZiSxPhy0iR-4" value="" style="endArrow=none;html=1;rounded=0;strokeWidth=3;" edge="1" parent="1">
          <mxGeometry width="50" height="50" relative="1" as="geometry">
            <mxPoint x="242" y="441" as="sourcePoint" />
            <mxPoint x="682" y="441" as="targetPoint" />
            <Array as="points">
              <mxPoint x="360" y="460" />
              <mxPoint x="460" y="390" />
              <mxPoint x="510" y="410" />
              <mxPoint x="540" y="370" />
              <mxPoint x="630" y="380" />
              <mxPoint x="600" y="420" />
            </Array>
          </mxGeometry>
        </mxCell>
        <mxCell id="D55DIvP1AOZiSxPhy0iR-6" value="" style="endArrow=none;html=1;rounded=0;strokeWidth=3;" edge="1" parent="1">
          <mxGeometry width="50" height="50" relative="1" as="geometry">
            <mxPoint x="560" y="240" as="sourcePoint" />
            <mxPoint x="680" y="240" as="targetPoint" />
          </mxGeometry>
        </mxCell>
        <mxCell id="D55DIvP1AOZiSxPhy0iR-7" value="" style="endArrow=none;dashed=1;html=1;rounded=0;fillColor=#f8cecc;strokeColor=#FF8000;strokeWidth=3;" edge="1" parent="1">
          <mxGeometry width="50" height="50" relative="1" as="geometry">
            <mxPoint x="360" y="240" as="sourcePoint" />
            <mxPoint x="560" y="240" as="targetPoint" />
          </mxGeometry>
        </mxCell>
        <mxCell id="D55DIvP1AOZiSxPhy0iR-8" value="" style="endArrow=none;html=1;rounded=0;strokeWidth=3;" edge="1" parent="1">
          <mxGeometry width="50" height="50" relative="1" as="geometry">
            <mxPoint x="241" y="519" as="sourcePoint" />
            <mxPoint x="361" y="519" as="targetPoint" />
            <Array as="points">
              <mxPoint x="330" y="550" />
            </Array>
          </mxGeometry>
        </mxCell>
        <mxCell id="D55DIvP1AOZiSxPhy0iR-9" value="" style="endArrow=none;html=1;rounded=0;strokeWidth=3;" edge="1" parent="1">
          <mxGeometry width="50" height="50" relative="1" as="geometry">
            <mxPoint x="561" y="519" as="sourcePoint" />
            <mxPoint x="681" y="519" as="targetPoint" />
            <Array as="points">
              <mxPoint x="590" y="470" />
              <mxPoint x="650" y="490" />
              <mxPoint x="620" y="540" />
              <mxPoint x="670" y="540" />
            </Array>
          </mxGeometry>
        </mxCell>
        <mxCell id="D55DIvP1AOZiSxPhy0iR-10" value="" style="endArrow=none;dashed=1;html=1;rounded=0;fillColor=#f8cecc;strokeColor=#FF8000;strokeWidth=3;" edge="1" parent="1">
          <mxGeometry width="50" height="50" relative="1" as="geometry">
            <mxPoint x="361" y="519" as="sourcePoint" />
            <mxPoint x="561" y="519" as="targetPoint" />
          </mxGeometry>
        </mxCell>
        <mxCell id="D55DIvP1AOZiSxPhy0iR-11" value="Direct" style="text;html=1;align=center;verticalAlign=middle;whiteSpace=wrap;rounded=0;fontSize=18;fontStyle=1" vertex="1" parent="1">
          <mxGeometry x="120" y="190" width="90" height="30" as="geometry" />
        </mxCell>
        <mxCell id="D55DIvP1AOZiSxPhy0iR-12" value="Safe" style="text;html=1;align=center;verticalAlign=middle;whiteSpace=wrap;rounded=0;fontSize=18;fontStyle=1" vertex="1" parent="1">
          <mxGeometry x="120" y="470" width="90" height="30" as="geometry" />
        </mxCell>
        <mxCell id="D55DIvP1AOZiSxPhy0iR-13" value="Bike" style="text;html=1;align=center;verticalAlign=middle;whiteSpace=wrap;rounded=0;fontSize=15;" vertex="1" parent="1">
          <mxGeometry x="710" y="150" width="90" height="30" as="geometry" />
        </mxCell>
        <mxCell id="D55DIvP1AOZiSxPhy0iR-14" value="Bike + PT" style="text;html=1;align=center;verticalAlign=middle;whiteSpace=wrap;rounded=0;fontSize=15;" vertex="1" parent="1">
          <mxGeometry x="710" y="230" width="90" height="30" as="geometry" />
        </mxCell>
        <mxCell id="D55DIvP1AOZiSxPhy0iR-15" value="Bike" style="text;html=1;align=center;verticalAlign=middle;whiteSpace=wrap;rounded=0;fontSize=15;" vertex="1" parent="1">
          <mxGeometry x="710" y="430" width="90" height="30" as="geometry" />
        </mxCell>
        <mxCell id="D55DIvP1AOZiSxPhy0iR-16" value="Bike + PT" style="text;html=1;align=center;verticalAlign=middle;whiteSpace=wrap;rounded=0;fontSize=15;" vertex="1" parent="1">
          <mxGeometry x="710" y="510" width="90" height="30" as="geometry" />
        </mxCell>
      </root>
    </mxGraphModel>
  </diagram>
</mxfile>
